<svg version="1.1" id="Layer_1" xmlns="http://www.w3.org/2000/svg" xmlns:xlink="http://www.w3.org/1999/xlink" x="0px" y="0px"
	 width="100%" viewBox="0 0 1024 1024" enable-background="new 0 0 1024 1024" xml:space="preserve">
<path fill="#000000" opacity="1.000000" stroke="none" 
	d="
M514.559570,516.469788 
	C513.182190,514.794556 512.021851,513.392334 510.204803,511.196472 
	C509.920593,517.191772 509.518677,522.339172 509.465271,527.490173 
	C509.354889,538.144958 509.273895,548.805176 509.514832,559.455627 
	C509.597321,563.100342 508.222260,564.015076 504.906036,564.099060 
	C494.618713,564.359558 494.640015,564.453857 494.642700,554.247070 
	C494.648163,533.434082 494.558655,512.620544 494.713837,491.808807 
	C494.733490,489.172607 492.798767,484.819275 497.047974,484.235901 
	C501.510132,483.623322 506.623474,482.138733 510.392456,486.989929 
	C521.525330,501.319397 532.820435,515.522888 544.063110,529.766968 
	C545.600647,531.715088 547.200745,533.613770 549.666016,536.628906 
	C549.666016,531.715759 549.666321,527.999390 549.665955,524.283020 
	C549.664917,512.627747 549.803589,500.969849 549.588013,489.318542 
	C549.510437,485.131348 551.059448,483.848602 555.109131,483.854462 
	C565.171265,483.868958 565.174194,483.715607 565.162476,493.928619 
	C565.138611,514.741516 565.155884,535.554626 565.029480,556.366882 
	C565.013611,558.968872 566.382629,562.303101 562.807556,563.841370 
	C558.877686,565.532288 551.450439,563.866272 549.129639,560.887939 
	C537.669067,546.180359 526.225952,531.459167 514.559570,516.469788 
z"/>
<path fill="#000000" opacity="1.000000" stroke="none" 
	d="
M269.022766,558.031860 
	C262.739105,556.441833 256.112091,557.500793 249.862320,555.429077 
	C246.457077,554.300293 242.887711,553.666565 238.655640,552.628906 
	C245.565430,565.161499 254.234848,575.364868 262.681854,585.884766 
	C271.190063,596.480835 281.234741,593.857361 291.613495,592.378723 
	C297.863251,591.488342 304.047272,590.143494 310.272644,589.071350 
	C312.305328,588.721313 314.449371,587.973755 317.596802,590.570496 
	C310.466553,591.246033 308.477509,599.046753 300.314575,597.724792 
	C294.079926,596.715149 287.253601,599.359192 279.667999,600.536621 
	C288.163116,607.151611 296.561035,612.256409 305.574036,616.384827 
	C307.134064,617.099487 308.452972,616.053345 309.840088,615.549438 
	C316.104187,613.273560 321.699829,615.671021 323.678772,621.454285 
	C325.553131,626.931946 322.747803,632.621216 317.367706,634.253418 
	C311.542023,636.020813 306.256287,633.048340 304.510620,626.540588 
	C303.730865,623.633850 302.109955,622.085510 299.635040,620.737915 
	C289.677765,615.315918 279.931000,609.540894 271.231354,602.191223 
	C269.596588,600.810181 267.818024,600.303833 265.730072,600.279907 
	C262.903442,600.247559 260.035156,600.278198 257.264069,599.811218 
	C253.135941,599.115540 249.813370,599.118774 246.703979,602.973389 
	C243.332458,607.153076 236.711777,606.548645 232.911942,602.600220 
	C229.192093,598.734924 229.218109,592.398315 232.969467,588.605957 
	C236.861481,584.671387 244.030777,584.200623 247.207855,588.711121 
	C250.714386,593.689331 255.231567,592.920654 261.367981,593.458557 
	C255.778488,588.061768 252.916595,581.807068 245.693573,580.180847 
	C242.957336,579.564697 240.300217,578.425964 237.741180,577.236755 
	C234.405457,575.686646 231.593353,575.195007 228.029419,577.444275 
	C223.364319,580.388550 217.358643,578.030151 214.885742,573.159729 
	C212.406616,568.277100 214.296951,562.421387 219.166473,559.899414 
	C223.876251,557.460144 230.297104,558.871643 231.858124,563.930115 
	C233.640121,569.704712 237.840744,570.796509 243.648575,572.557678 
	C238.150009,565.167053 234.300156,557.925659 230.127075,550.871460 
	C229.223251,549.343628 227.351425,549.120483 225.841782,548.468445 
	C218.506241,545.300354 211.165207,542.144714 203.807434,539.028748 
	C201.115250,537.888611 199.621140,536.196655 201.076630,533.235229 
	C202.695175,529.942139 204.690109,532.268982 206.440445,533.102905 
	C212.095398,535.796875 217.658600,538.702026 224.361008,540.676147 
	C223.109344,534.646118 221.684036,530.058350 215.495193,528.145874 
	C211.522018,526.918030 207.293655,525.538452 204.112305,522.282898 
	C208.317139,514.813782 213.105148,521.095032 218.058395,521.586426 
	C217.389969,518.576172 216.888168,515.854980 216.166138,513.193481 
	C215.435211,510.499268 217.187668,509.460510 219.099640,508.805054 
	C221.441696,508.002197 221.829010,509.946564 222.250977,511.588715 
	C222.498962,512.553833 222.683167,513.535156 222.921600,514.502869 
	C225.771469,526.069031 229.924393,529.417908 243.393646,530.380737 
	C239.562515,523.268860 235.397903,516.748962 232.882202,509.102692 
	C236.992401,508.408875 239.484039,509.610352 240.957657,513.283081 
	C243.394485,519.356384 247.073593,524.727722 250.949997,529.957947 
	C252.449219,531.980713 254.049576,533.983582 256.660889,534.563232 
	C260.225616,535.354492 261.295685,537.887024 261.824890,541.580505 
	C250.794403,540.166321 240.554092,536.959900 230.249557,533.626953 
	C230.715256,540.975281 233.380936,544.639709 239.701050,546.403748 
	C248.192444,548.773926 256.696991,551.174316 265.549957,551.785889 
	C268.346405,551.979126 270.270538,553.224609 271.492676,555.650024 
	C272.485077,557.619629 271.253113,557.950989 269.335022,557.990540 
	C268.985107,558.001282 269.022766,558.031860 269.022766,558.031860 
M239.618454,599.602600 
	C244.140533,598.353149 245.648117,596.118530 243.698196,593.475830 
	C242.680664,592.096802 241.306076,591.192200 239.496674,591.461914 
	C237.898193,591.700134 236.813217,592.701172 236.422821,594.255859 
	C235.827164,596.628052 236.604553,598.431335 239.618454,599.602600 
M226.807434,571.297546 
	C228.433350,568.695740 227.808716,566.567749 225.278381,565.063538 
	C223.097260,563.766968 221.547287,565.030823 220.258850,566.710510 
	C219.235245,568.044983 219.211334,569.449280 220.251358,570.783569 
	C221.937714,572.947021 223.967560,573.284180 226.807434,571.297546 
M313.626953,620.620728 
	C311.220734,621.263794 309.930573,622.732056 310.302612,625.309631 
	C310.567261,627.143188 311.700623,628.283752 313.505737,628.608704 
	C315.302612,628.932190 316.909546,628.297852 317.721100,626.698608 
	C319.536804,623.120422 317.274841,621.618469 313.626953,620.620728 
z"/>
<path fill="#000000" opacity="1.000000" stroke="none" 
	d="
M290.550415,453.820740 
	C290.013184,462.399506 288.975037,470.475555 286.291504,478.246460 
	C279.103302,499.061951 257.035583,510.915558 236.341507,505.045654 
	C234.541153,504.535004 232.317032,504.506500 231.027527,501.826569 
	C236.688065,498.634918 241.429474,494.467499 248.893692,494.570587 
	C264.755432,494.789551 275.433594,482.929718 273.758453,468.103119 
	C273.396942,464.903503 272.472198,461.942078 269.850861,459.013519 
	C269.021088,463.357941 268.651855,467.424072 266.622986,471.011444 
	C263.633057,476.298218 260.204712,477.966675 254.220062,476.883148 
	C248.496231,475.846863 242.824829,474.480133 236.979980,474.198822 
	C235.480011,474.126617 233.997055,473.854248 232.730499,472.481415 
	C233.970520,469.380157 236.553818,467.201752 238.683548,464.736542 
	C246.305008,455.914398 254.001434,447.200165 260.454254,437.403046 
	C267.273773,427.049194 278.370575,423.871857 287.690979,428.996918 
	C293.574432,432.232086 296.427826,439.481171 304.320770,440.721619 
	C298.227692,444.155823 291.676514,445.882172 290.550415,453.820740 
z"/>
<path fill="#000000" opacity="1.000000" stroke="none" 
	d="
M776.287537,517.744873 
	C785.752380,517.755066 794.755005,517.919800 803.748413,517.703247 
	C807.955811,517.601929 809.583496,519.238647 809.128845,523.290527 
	C809.036560,524.113647 809.025146,524.965942 809.124084,525.787048 
	C809.691101,530.491272 807.790100,532.381775 802.927979,532.227661 
	C794.104431,531.948120 785.263306,532.266907 776.435120,532.075073 
	C772.602844,531.991882 771.027039,533.246765 771.149170,537.233459 
	C771.373779,544.558899 771.091309,551.899048 771.261292,559.227417 
	C771.346436,562.897217 769.894165,564.183411 766.276489,564.273621 
	C755.904602,564.532288 755.884705,564.647522 755.874695,554.133301 
	C755.854553,532.969360 755.971497,511.804413 755.776733,490.642212 
	C755.731018,485.678375 757.388794,483.853668 762.415833,483.927307 
	C777.577148,484.149445 792.745789,484.131226 807.907532,483.919586 
	C812.531067,483.855042 814.131348,485.534576 813.894470,490.053680 
	C813.469238,498.166107 813.617432,498.184479 805.498230,498.196808 
	C795.832825,498.211517 786.162842,498.379517 776.504028,498.128357 
	C772.265076,498.018158 770.842163,499.595123 771.153503,503.647583 
	C771.395264,506.794647 771.325317,509.984100 771.143738,513.140259 
	C770.944214,516.608093 772.381042,518.119629 776.287537,517.744873 
z"/>
<path fill="#000000" opacity="1.000000" stroke="none" 
	d="
M578.987427,534.070801 
	C581.792053,516.259094 588.823547,507.675079 603.002197,504.340698 
	C623.197815,499.591217 641.195068,514.735474 640.085571,535.418396 
	C639.881165,539.227966 637.914062,540.151794 634.598267,540.131958 
	C623.948120,540.068298 613.297363,540.092957 602.646973,540.130310 
	C600.512085,540.137817 598.322998,539.754517 596.261658,540.651733 
	C596.595032,546.261536 601.512695,550.811890 608.235779,551.638428 
	C613.504150,552.286133 618.916870,551.947693 623.005981,548.525208 
	C627.363708,544.877930 629.971252,546.485596 632.783020,550.007263 
	C633.700134,551.155945 635.164978,551.868530 635.522583,553.462036 
	C629.723206,562.774048 616.108337,567.168701 602.586975,564.095520 
	C588.550659,560.905273 580.786621,551.175842 578.987427,534.070801 
M620.706238,520.770569 
	C610.822632,513.119507 597.445435,516.998962 595.889954,528.375183 
	C605.241089,528.375183 614.534729,528.375183 623.921448,528.375183 
	C624.187622,525.259155 622.509583,523.354492 620.706238,520.770569 
z"/>
<path fill="#000000" opacity="1.000000" stroke="none" 
	d="
M660.866699,537.352905 
	C653.349182,534.451843 649.524292,529.320129 649.736755,521.552002 
	C649.944153,513.970825 654.215210,508.445801 662.009155,505.628540 
	C673.098816,501.620026 683.627136,503.939819 693.906433,508.688293 
	C696.271301,509.780701 696.538330,511.401367 695.366333,513.553955 
	C694.491211,515.161377 693.646973,516.794312 692.924683,518.474182 
	C691.814331,521.056824 690.271912,521.375854 687.794861,520.110962 
	C682.844727,517.583252 677.548401,516.157227 671.936646,516.340942 
	C668.977234,516.437744 666.046631,517.138123 665.371887,520.525818 
	C664.620422,524.298950 667.714722,525.320251 670.414551,526.185669 
	C675.479126,527.809204 680.674377,529.037659 685.701599,530.761780 
	C693.189697,533.329956 697.904419,538.560669 697.923767,546.638367 
	C697.942444,554.460205 693.371826,559.762756 686.293518,562.557495 
	C673.125061,567.756958 660.822144,564.859070 649.120972,557.871826 
	C647.255310,556.757812 646.677063,555.227966 648.082397,553.288879 
	C648.569946,552.616211 649.095276,551.931030 649.396484,551.169678 
	C651.309631,546.333801 653.760925,545.131836 658.651672,548.315308 
	C663.374451,551.389404 668.993347,552.991455 674.822510,552.610901 
	C677.962952,552.405762 681.765991,552.096558 682.421814,548.312744 
	C683.104736,544.372742 679.528381,543.052551 676.508301,542.057678 
	C671.460510,540.394775 666.327942,538.988770 660.866699,537.352905 
z"/>
<path fill="#000000" opacity="1.000000" stroke="none" 
	d="
M703.605469,509.971741 
	C703.260010,506.158417 704.636169,504.414734 708.140747,504.782471 
	C711.641968,505.149841 713.081665,503.564941 712.707458,500.146393 
	C712.671509,499.817627 712.702759,499.481110 712.707825,499.148285 
	C712.890320,487.182251 711.140320,488.973572 723.454407,488.469879 
	C727.187500,488.317139 727.907043,489.958832 728.012024,493.171844 
	C728.362305,503.886322 728.442139,503.951935 739.322327,504.632660 
	C741.961243,504.797760 743.129150,505.625336 743.323486,508.425842 
	C743.917480,516.986877 743.653748,517.377258 734.974243,517.388367 
	C727.974792,517.397278 727.984497,517.397339 728.001099,524.165710 
	C728.017395,530.823364 727.895752,537.483582 728.047852,544.137878 
	C728.196533,550.640259 731.163086,552.961853 736.941345,550.392029 
	C741.612854,548.314392 742.294189,551.141602 743.620972,554.131226 
	C745.063965,557.382812 746.349792,560.317505 741.745361,562.227234 
	C735.372192,564.870789 728.972961,565.998962 722.413452,563.131775 
	C715.370728,560.053406 713.102539,553.928589 712.843506,546.918518 
	C712.567017,539.437866 712.434204,531.925537 712.815002,524.456421 
	C713.063843,519.577576 711.593689,517.194458 706.558594,517.439392 
	C705.780518,517.477173 704.984863,517.154785 704.287354,517.016846 
	C703.171753,514.744446 703.770935,512.547302 703.605469,509.971741 
z"/>
<path fill="#000000" opacity="1.000000" stroke="none" 
	d="
M311.103882,551.069214 
	C312.103577,553.741150 313.688629,554.531006 316.210632,554.673340 
	C329.337372,555.414612 342.487030,555.489929 355.604492,556.046936 
	C364.849396,556.439514 369.628113,550.962158 376.251465,544.646606 
	C367.702759,545.800781 360.560730,546.943604 353.377472,547.688843 
	C344.766846,548.582153 336.247864,549.588745 328.058807,552.740967 
	C324.861938,553.971558 321.272278,553.837463 318.169525,552.256653 
	C317.985077,551.072876 318.453583,550.596741 319.065643,550.326965 
	C329.282959,545.824463 339.606964,542.083130 351.032806,541.566711 
	C361.486725,541.094177 371.783936,538.836426 381.993988,536.484985 
	C385.391266,535.702637 386.800110,533.865540 385.748474,529.901855 
	C384.138702,523.834778 387.936707,518.535217 393.693634,517.780029 
	C399.413025,517.029724 404.723694,521.280823 405.223663,527.009766 
	C405.689301,532.345642 401.374969,537.087219 395.328247,537.246338 
	C392.327881,537.325195 390.374084,538.319580 388.616486,540.634766 
	C386.813049,543.010315 384.680511,545.148499 382.586823,547.287659 
	C380.512939,549.406616 378.307983,551.397156 375.748901,553.836426 
	C383.055420,553.887939 389.520172,551.863831 396.090851,550.539368 
	C397.904541,550.173645 400.194977,548.622803 400.941193,551.767700 
	C401.544342,554.309570 400.199921,555.687134 397.636444,556.364624 
	C376.162170,562.039795 354.313080,563.095093 332.271667,561.788452 
	C326.465973,561.444275 320.667847,560.932983 314.878296,560.373901 
	C312.282623,560.123230 311.047272,561.896179 309.481964,563.375000 
	C306.424835,566.263184 302.855286,567.154053 298.908539,565.437073 
	C295.053741,563.760315 292.967041,560.727295 292.729187,556.518066 
	C292.490631,552.296936 294.245392,549.053772 297.909698,546.985107 
	C302.394226,544.453369 306.750610,545.763733 311.103882,551.069214 
M306.605865,556.402039 
	C306.231201,552.835571 304.628296,550.756653 300.787231,552.151245 
	C299.167236,552.739380 298.301666,554.285522 298.364166,556.120544 
	C298.428528,558.009827 299.496277,559.208008 301.258118,559.660950 
	C303.657471,560.277954 305.455536,559.441406 306.605865,556.402039 
M392.790924,530.548645 
	C395.156433,532.172363 397.165039,531.785461 398.661591,529.361328 
	C399.656097,527.750366 399.309509,526.176270 398.047455,524.827332 
	C396.619781,523.301514 394.925720,522.934082 393.162628,524.142151 
	C390.812561,525.752380 390.573761,527.793884 392.790924,530.548645 
z"/>
<path fill="#000000" opacity="1.000000" stroke="none" 
	d="
M376.870087,522.949768 
	C361.465973,534.079956 339.942078,534.468262 327.048401,525.961243 
	C330.894714,525.726990 334.120880,525.706604 337.299835,525.308899 
	C361.643768,522.263367 376.314392,507.595978 384.681854,485.533295 
	C390.378967,470.511536 391.269989,454.733856 391.757538,438.898254 
	C391.932251,433.223877 391.523102,427.476288 392.521698,421.666504 
	C395.300537,422.478851 395.126526,424.148804 395.153900,425.558136 
	C395.509705,443.860138 398.136475,462.100098 397.152466,480.420746 
	C396.255676,497.118591 391.258636,512.145020 376.870087,522.949768 
z"/>
<path fill="#000000" opacity="1.000000" stroke="none" 
	d="
M359.431030,512.538452 
	C348.563477,522.809448 323.677002,512.365845 317.050873,500.656006 
	C311.578918,490.985779 309.664551,481.165710 312.715393,470.477844 
	C316.477539,457.298248 322.421021,445.318359 332.510529,435.759338 
	C342.177917,426.600311 351.859406,426.067261 361.854980,434.862823 
	C373.320496,444.951843 379.978882,458.173767 384.027710,472.686646 
	C385.245544,477.051880 382.971497,480.942596 379.852661,485.966614 
	C378.556549,479.094177 377.596344,473.605011 375.584167,468.396667 
	C371.454498,457.707458 366.082581,447.835968 357.522888,439.996765 
	C350.762695,433.805603 344.614044,433.589722 338.124908,439.829773 
	C326.568726,450.942474 319.093781,464.622192 317.701752,480.494507 
	C316.541351,493.725983 326.630737,507.644409 343.000763,509.671295 
	C350.827484,510.640350 358.273041,509.331451 364.914825,504.723602 
	C365.851624,504.073730 366.785431,503.300385 369.261017,503.736237 
	C366.291931,507.414001 363.011383,509.872040 359.431030,512.538452 
z"/>
<path fill="#000000" opacity="1.000000" stroke="none" 
	d="
M827.456055,484.117004 
	C841.326111,483.769287 839.150513,483.797089 839.213745,495.194031 
	C839.329346,516.015076 839.277588,536.837097 839.276184,557.658752 
	C839.275757,563.965271 839.067566,564.147949 832.873352,564.135254 
	C831.874023,564.133179 830.866394,564.016113 829.876892,564.107300 
	C825.367615,564.522705 823.714905,562.596008 823.788452,558.015625 
	C824.013062,544.026978 823.879822,530.032654 823.893433,516.040527 
	C823.902039,507.212250 823.903687,498.383820 823.954163,489.555756 
	C823.967407,487.234924 823.754333,484.689423 827.456055,484.117004 
z"/>
<path fill="#000000" opacity="1.000000" stroke="none" 
	d="
M457.265442,507.187012 
	C457.194214,507.822266 457.166321,508.308746 456.951294,508.414337 
	C444.263702,514.646667 442.088837,527.940491 436.305023,539.148621 
	C439.260468,538.733215 440.540253,537.307678 441.148987,534.454346 
	C442.493439,528.152710 447.734283,524.725708 453.111206,526.183167 
	C458.798615,527.724731 462.270294,533.729187 460.486969,538.939941 
	C458.528595,544.662048 452.748810,547.205627 446.653931,544.581848 
	C444.339935,543.585693 442.661896,543.802979 440.622375,544.896362 
	C436.665802,547.017456 432.602936,548.939697 428.594269,550.964417 
	C426.624420,551.959412 424.756775,553.147888 423.021790,550.465332 
	C421.452118,548.038452 422.113525,546.406555 423.985901,544.393066 
	C429.435852,538.532227 433.371582,531.710999 435.763306,523.839233 
	C427.336517,529.844421 415.822723,530.409058 409.589417,540.121399 
	C407.228973,543.799255 403.254700,546.363281 398.326996,546.049011 
	C397.452820,544.016235 399.109711,543.506104 399.901062,542.617371 
	C402.053131,540.200562 405.735168,538.791870 404.309601,534.232788 
	C403.945923,533.069641 405.392242,530.813660 406.938538,530.268555 
	C414.142365,527.729065 415.970886,520.939758 419.161865,515.245178 
	C420.294159,513.224548 421.013794,510.975677 421.974304,508.854767 
	C422.808014,507.013885 424.144928,506.565430 426.052399,507.338959 
	C427.996552,508.127380 428.548279,509.326385 427.713531,511.248047 
	C426.124756,514.905457 424.574463,518.579651 422.704681,522.957458 
	C429.269073,520.257568 434.859711,517.016479 439.959137,512.953552 
	C441.924561,511.387604 441.611023,508.690399 442.423309,506.541687 
	C443.070862,504.828583 442.097595,502.102631 444.942322,501.749298 
	C447.635864,501.414734 449.165131,503.100830 449.674622,506.227966 
	C452.929688,502.840820 455.463715,502.694580 457.265442,507.187012 
M453.421753,538.903931 
	C455.141510,537.118652 455.393188,535.131287 453.875885,533.177734 
	C452.791504,531.781677 451.246582,531.269958 449.494476,532.033325 
	C447.566376,532.873352 446.739471,534.442749 447.223145,536.400085 
	C447.947205,539.330322 449.903625,540.335022 453.421753,538.903931 
z"/>
<path fill="#000000" opacity="1.000000" stroke="none" 
	d="
M268.964142,557.989014 
	C276.312225,566.670410 285.726990,572.954041 294.573395,579.924377 
	C296.185425,581.194519 297.513519,581.863220 299.446106,581.458740 
	C305.624176,580.165649 311.815826,578.935608 317.983002,577.592957 
	C322.069031,576.703430 325.594604,575.395447 328.213287,571.391479 
	C331.180817,566.854126 338.276093,566.813354 342.463257,570.421814 
	C346.556763,573.949585 346.904205,580.181274 343.235352,584.270874 
	C339.667389,588.247986 333.214691,588.864990 329.422791,584.793396 
	C326.716766,581.887878 324.384003,582.067322 321.098877,582.983582 
	C305.814697,587.246338 290.263580,589.572815 274.329651,589.236877 
	C269.086121,589.126282 266.131287,586.513794 264.093506,582.524597 
	C264.726807,580.573120 266.419312,581.569946 267.266083,580.536133 
	C267.060638,580.154846 266.939056,579.581360 266.592499,579.359741 
	C265.911530,578.924377 265.125305,578.622620 264.348022,578.373718 
	C257.584015,576.207520 253.966248,571.558350 254.947525,566.253174 
	C256.047272,560.307373 260.508575,557.494812 268.585815,557.981201 
	C269.022766,558.031860 268.985107,558.001282 268.964142,557.989014 
M285.704529,582.612793 
	C285.945496,582.424744 286.208496,582.256897 286.412598,582.034912 
	C286.466553,581.976257 286.387543,581.684143 286.287811,581.611267 
	C282.295776,578.695251 278.294312,575.792114 274.309265,572.898376 
	C272.818634,574.111267 271.300873,574.897644 271.129120,576.774231 
	C274.971527,580.783813 279.060150,584.024780 285.704529,582.612793 
M266.789154,564.576660 
	C264.326111,563.758057 262.133240,563.972717 260.860718,566.531982 
	C259.884583,568.495056 260.863251,570.070740 262.363586,571.306885 
	C264.042114,572.689819 265.815552,572.467651 267.276489,571.015869 
	C269.181000,569.123352 269.529175,567.032593 266.789154,564.576660 
M337.025452,573.713623 
	C334.152161,572.946960 332.576477,574.460938 331.932953,576.958923 
	C331.409607,578.990295 332.670990,580.493469 334.400238,581.308472 
	C336.250824,582.180603 338.044434,581.660583 339.142517,579.916626 
	C340.637421,577.542297 339.935730,575.545105 337.025452,573.713623 
z"/>
<path fill="#000000" opacity="1.000000" stroke="none" 
	d="
M359.542908,571.756104 
	C356.029266,569.578125 353.512299,571.508423 350.925476,572.980896 
	C349.269287,573.923706 347.718658,574.839050 346.235718,572.591370 
	C344.692383,570.252075 345.884430,569.056519 347.714569,567.727600 
	C352.658356,564.137878 357.334320,563.417175 363.468689,565.885437 
	C377.956329,571.714844 393.436707,573.186279 408.932098,573.983459 
	C414.083344,574.248474 419.035431,575.216614 423.308228,570.126038 
	C426.313110,566.546021 432.626801,567.966614 435.795258,571.576172 
	C438.966248,575.188660 439.095001,580.823120 436.089478,584.454529 
	C433.099854,588.066833 427.572601,588.905212 423.432343,586.305786 
	C422.314209,585.603699 421.326111,584.694397 420.077087,583.723877 
	C410.393066,588.534485 400.686523,593.517456 389.847595,596.663208 
	C388.968994,592.215759 389.886993,589.240051 394.027832,588.033508 
	C401.631409,585.817932 408.231659,580.598389 416.545288,580.514404 
	C397.378235,579.496765 378.271271,578.071655 359.542908,571.756104 
M428.548553,581.811951 
	C431.110657,581.638916 432.671936,580.329529 432.534912,577.707581 
	C432.426453,575.632324 431.030884,574.411133 428.961487,574.176208 
	C426.819977,573.933167 425.399994,575.063110 424.795807,576.998413 
	C423.968170,579.649353 425.379608,581.072998 428.548553,581.811951 
z"/>
<path fill="#000000" opacity="1.000000" stroke="none" 
	d="
M382.678711,617.411011 
	C380.936371,614.670227 378.788574,614.058411 376.020721,614.451050 
	C360.772156,616.614075 345.841064,614.805420 331.149658,610.550781 
	C328.619385,609.818054 326.704102,609.720276 324.354126,611.624390 
	C320.213440,614.979675 314.673401,614.351685 311.171844,610.849609 
	C307.706177,607.383423 307.221100,601.566772 310.060364,597.521790 
	C312.734070,593.712769 317.792145,592.566467 322.615448,594.471008 
	C325.207916,595.494629 326.674469,597.382080 327.293762,599.906006 
	C328.032227,602.915955 329.993683,604.022888 332.834808,604.798584 
	C346.302338,608.476013 359.958740,609.781067 373.861450,608.694397 
	C376.699799,608.472534 379.272400,608.219238 381.171051,605.368774 
	C384.543854,600.305054 390.597534,599.111145 395.031555,602.166870 
	C399.423767,605.193726 400.622498,611.308350 397.728241,615.922302 
	C394.768036,620.641357 389.252625,621.586548 383.727722,618.312561 
	C383.444489,618.144714 383.207092,617.899475 382.678711,617.411011 
M314.272736,601.473083 
	C313.769562,605.962158 315.973022,608.609253 319.316498,607.448242 
	C320.968475,606.874573 322.214081,605.706299 322.465851,603.893005 
	C322.698456,602.217896 321.652771,601.020508 320.411560,600.135437 
	C318.316956,598.641846 316.350586,599.033142 314.272736,601.473083 
M390.115326,614.290894 
	C392.628357,613.200623 394.427460,611.606445 393.190826,608.615295 
	C392.306946,606.477356 390.380798,605.898926 388.258148,606.518250 
	C386.531952,607.021973 385.465851,608.386169 385.478882,610.179382 
	C385.497101,612.684631 387.067200,613.989990 390.115326,614.290894 
z"/>
<path fill="#000000" opacity="1.000000" stroke="none" 
	d="
M204.196930,503.209656 
	C212.257523,494.324677 220.130875,485.745270 227.862427,477.039917 
	C229.565659,475.122162 231.195496,473.838348 233.825867,474.754089 
	C239.536057,476.742065 244.697830,479.573761 249.682846,485.083710 
	C228.517792,498.524078 207.823303,511.665619 187.128830,524.807190 
	C191.553513,516.573303 198.157730,510.351685 204.196930,503.209656 
z"/>
<path fill="#000000" opacity="1.000000" stroke="none" 
	d="
M683.026123,609.956909 
	C680.726440,607.115540 678.649048,604.551208 675.605957,600.794922 
	C675.605957,607.534790 675.610596,612.918030 675.603455,618.301270 
	C675.600952,620.174500 675.695862,622.098511 673.001526,622.239563 
	C670.164307,622.388123 669.720337,620.584534 669.718384,618.365723 
	C669.711243,610.200256 669.678711,602.034607 669.713379,593.869324 
	C669.720154,592.265076 669.445068,590.368164 671.744263,589.895325 
	C673.721741,589.488525 675.310913,590.067566 676.561890,591.722351 
	C680.380005,596.773071 684.229736,601.800110 688.103699,606.808044 
	C688.901245,607.839111 689.856689,608.748047 691.205200,610.222656 
	C692.318726,604.586609 691.540894,599.499573 691.787231,594.471680 
	C691.891602,592.341492 691.465576,589.909668 694.775269,589.787842 
	C698.364258,589.655762 698.202881,592.196960 698.204529,594.563110 
	C698.210083,602.395264 698.193909,610.227600 698.129395,618.059387 
	C698.116150,619.670471 698.371826,621.578918 696.174744,622.133667 
	C694.225220,622.625916 692.569946,622.053894 691.299683,620.435364 
	C688.625244,617.027588 685.933289,613.633667 683.026123,609.956909 
z"/>
<path fill="#000000" opacity="1.000000" stroke="none" 
	d="
M579.333130,614.933350 
	C578.688477,617.796936 581.055847,621.984131 576.539001,622.044617 
	C571.952087,622.106018 573.814453,617.900757 573.729553,615.504517 
	C573.482300,608.527649 573.585083,601.535889 573.673584,594.551514 
	C573.694885,592.872314 572.980652,590.640808 575.484558,589.949219 
	C577.699707,589.337402 579.255249,590.429443 580.592651,592.165955 
	C585.143066,598.074341 589.766357,603.926636 595.680298,609.605530 
	C595.680298,604.798096 595.608521,599.989197 595.711365,595.184021 
	C595.760925,592.869324 594.882629,589.728394 598.950745,589.847168 
	C602.559204,589.952515 601.951843,592.797241 601.969055,594.998352 
	C602.037903,603.791626 601.997498,612.585693 601.997498,621.064026 
	C598.299438,623.243896 596.331604,621.999939 594.490295,619.663391 
	C589.873779,613.805420 585.167969,608.017944 579.333557,602.405151 
	C579.333557,606.420105 579.333557,610.434998 579.333130,614.933350 
z"/>
<path fill="#000000" opacity="1.000000" stroke="none" 
	d="
M786.435181,607.529175 
	C783.796387,609.500854 781.066101,608.777161 778.446594,608.842957 
	C775.974243,608.905151 773.499207,608.856262 771.092712,608.856262 
	C769.237976,615.924988 769.870422,616.827332 776.472656,616.849976 
	C779.470886,616.860229 782.469299,616.844788 785.467346,616.870117 
	C787.280945,616.885437 788.866821,617.347534 788.972107,619.533752 
	C789.079712,621.769165 787.573730,622.324890 785.706482,622.327759 
	C779.709900,622.336914 773.712952,622.289001 767.716919,622.346924 
	C764.833862,622.374878 763.962952,620.755188 763.961548,618.235413 
	C763.957031,610.073181 763.975769,601.910767 763.921509,593.748840 
	C763.901489,590.740723 765.357849,589.644653 768.249939,589.698914 
	C773.578552,589.798889 778.910583,589.700317 784.240784,589.737427 
	C786.087769,589.750305 788.096069,589.715759 788.169434,592.388245 
	C788.252075,595.393494 786.050964,595.309326 784.022461,595.336853 
	C780.857971,595.379761 777.689392,595.443115 774.528564,595.330200 
	C771.745911,595.230774 770.134338,595.953552 770.169983,599.195312 
	C770.205933,602.467712 772.028320,603.072571 774.675720,603.055664 
	C777.507019,603.037598 780.339539,603.062805 783.170166,603.127197 
	C785.797485,603.187012 787.324890,604.261414 786.435181,607.529175 
z"/>
<path fill="#000000" opacity="1.000000" stroke="none" 
	d="
M357.517639,469.512146 
	C355.926117,471.428528 354.498474,471.087646 352.941620,469.990906 
	C351.729126,469.136719 350.468689,468.243958 349.092377,467.752808 
	C346.792603,466.932159 344.515350,467.482391 343.722626,469.892303 
	C342.978882,472.153290 345.082367,473.001221 346.821686,473.640594 
	C348.847473,474.385284 350.939117,474.949799 352.971313,475.678467 
	C356.464630,476.931000 358.376678,479.514862 358.642883,483.153076 
	C358.905609,486.743774 357.609009,489.722046 354.287170,491.448425 
	C352.603973,492.323212 351.431091,493.333618 350.652313,495.219177 
	C349.579041,497.817657 347.064941,498.346527 345.808044,495.784546 
	C344.458252,493.033386 342.134827,492.179626 339.957123,490.765808 
	C337.649811,489.267822 335.254303,487.412933 337.396362,484.351135 
	C339.485229,481.365448 341.376038,483.693268 343.152557,485.135529 
	C344.201294,485.986938 345.342468,486.639191 346.729919,486.754578 
	C348.965698,486.940491 351.481598,487.016205 352.137451,484.433563 
	C352.787109,481.875275 350.287720,481.257355 348.463562,480.558411 
	C346.299011,479.729095 343.944489,479.308929 341.903992,478.260468 
	C337.377563,475.934662 335.911591,470.622650 338.519257,466.331116 
	C340.474701,463.113007 344.737396,462.028625 346.221252,458.264008 
	C346.344849,457.950500 347.458099,457.865631 348.079163,457.941040 
	C349.728058,458.141205 357.344604,467.144287 357.517639,469.512146 
z"/>
<path fill="#000000" opacity="1.000000" stroke="none" 
	d="
M642.203125,596.846924 
	C645.913208,605.212097 649.470398,613.229065 653.067688,621.336548 
	C649.268616,622.999756 646.820068,622.617493 645.714783,619.057129 
	C644.752319,615.956787 642.660583,615.009094 639.622437,615.208313 
	C637.300659,615.360657 634.951355,615.371521 632.631348,615.205933 
	C629.572754,614.987549 627.518372,615.937561 626.623657,619.087585 
	C625.672974,622.434631 623.388184,622.941895 620.263489,621.608154 
	C619.870239,618.590820 621.608032,616.203369 622.662781,613.681396 
	C625.360168,607.231567 628.213135,600.846375 631.033569,594.448425 
	C632.016541,592.218628 632.547974,589.709534 635.945923,589.656616 
	C639.290894,589.604553 640.042480,591.932678 641.061401,594.206299 
	C641.401733,594.965637 641.721252,595.734314 642.203125,596.846924 
M632.982178,604.417053 
	C632.538635,605.935120 631.308228,607.330200 632.316101,609.292236 
	C634.958374,609.602905 637.664246,610.192566 640.534973,608.706787 
	C639.555298,605.070435 638.473938,601.763000 635.866150,598.448914 
	C634.824280,600.565369 634.038574,602.161499 632.982178,604.417053 
z"/>
<path fill="#000000" opacity="1.000000" stroke="none" 
	d="
M728.317200,622.125427 
	C717.737976,617.130371 713.989136,606.800903 719.075684,597.602722 
	C723.649536,589.331482 734.678894,586.628235 742.971436,591.831543 
	C744.525818,592.806885 747.014832,593.624268 745.345581,596.327637 
	C743.874207,598.710388 742.183533,598.365356 739.894348,597.038574 
	C734.569580,593.952393 729.138611,594.762024 725.837097,598.691589 
	C722.529846,602.628174 722.480957,609.073059 725.728088,613.046875 
	C729.228760,617.330688 734.730469,618.267883 740.086609,614.897644 
	C743.354858,612.841125 744.833374,614.242432 746.420654,616.643860 
	C742.267212,622.552002 736.948242,624.186401 728.317200,622.125427 
z"/>
<path fill="#000000" opacity="1.000000" stroke="none" 
	d="
M278.986725,549.016602 
	C286.812164,559.504333 296.401978,567.600769 307.394165,574.991211 
	C304.507935,577.258850 302.444366,579.083008 299.201294,576.690125 
	C282.431854,564.316956 268.795105,549.452698 261.482544,529.539368 
	C260.820648,527.737000 258.766479,525.447937 262.062439,524.134033 
	C265.046783,522.944397 266.255310,525.033936 267.112183,527.398743 
	C269.905579,535.108093 273.793884,542.218140 278.986725,549.016602 
z"/>
<path fill="#000000" opacity="1.000000" stroke="none" 
	d="
M385.240570,565.039734 
	C388.696075,563.690735 391.763092,562.373596 394.920380,561.329285 
	C399.743713,559.733826 403.304352,557.906982 403.033325,551.460266 
	C402.823273,546.464050 408.999603,542.942261 414.050079,543.924011 
	C419.237305,544.932434 422.851898,550.232544 421.961243,555.524170 
	C420.995941,561.259399 416.738983,564.841919 411.440002,563.500488 
	C407.835815,562.588074 405.160034,563.431030 402.120728,565.062927 
	C398.618927,566.943054 394.802094,568.241943 391.104340,569.749817 
	C388.782288,570.696655 386.557861,570.580200 384.522339,568.944641 
	C382.708893,567.487549 382.809540,566.250732 385.240570,565.039734 
M411.044617,557.536926 
	C413.678925,558.122253 415.676605,557.313843 416.389374,554.618896 
	C417.002075,552.302124 415.482910,550.954773 413.600098,550.022522 
	C411.788300,549.125488 410.384155,549.943176 409.346283,551.371216 
	C407.710663,553.621704 408.004852,555.642029 411.044617,557.536926 
z"/>
<path fill="#000000" opacity="1.000000" stroke="none" 
	d="
M526.103760,606.904297 
	C523.186340,610.866638 519.215088,609.232422 515.867310,609.073608 
	C510.821655,608.834167 509.040771,610.336731 509.456116,615.492981 
	C509.629883,617.650208 511.824219,622.005798 506.979736,622.083435 
	C502.019775,622.162964 503.932770,617.780334 503.832947,615.231689 
	C503.565765,608.412354 503.857147,601.572693 503.671997,594.747986 
	C503.576294,591.220520 504.605103,589.485413 508.444458,589.653625 
	C513.432251,589.872192 518.436584,589.699036 523.433594,589.727783 
	C525.347473,589.738831 527.206848,589.889038 527.207336,592.538940 
	C527.207886,595.211914 525.322876,595.297424 523.420837,595.314880 
	C520.089661,595.345520 516.757263,595.380859 513.427002,595.322083 
	C510.954071,595.278503 509.594452,596.303833 509.768005,598.862000 
	C509.925262,601.179749 509.795044,603.744080 513.325867,603.664795 
	C516.322266,603.597473 519.322327,603.654541 522.320129,603.698364 
	C524.211487,603.726013 526.125977,603.796936 526.103760,606.904297 
z"/>
<path fill="#000000" opacity="1.000000" stroke="none" 
	d="
M380.959106,580.792603 
	C386.608215,583.788635 389.039703,588.311340 387.780273,592.905640 
	C386.620422,597.136536 382.085693,600.422852 377.667267,600.234619 
	C372.932831,600.032898 368.927765,596.447083 368.058929,591.644897 
	C366.792542,584.645386 373.905365,578.401855 380.959106,580.792603 
M376.257355,594.215393 
	C379.826752,595.048218 381.818787,593.510742 381.750671,589.972168 
	C381.695557,587.108643 379.618317,585.953796 376.931213,586.333618 
	C373.389679,586.833984 372.875244,590.068237 376.257355,594.215393 
z"/>
<path fill="#000000" opacity="1.000000" stroke="none" 
	d="
M383.711609,415.732666 
	C386.079803,413.377411 388.268585,411.342377 390.292145,409.154449 
	C392.367493,406.910553 394.366333,406.533600 396.627899,408.828888 
	C400.349762,412.606201 404.127441,416.328735 407.832153,420.122650 
	C409.329163,421.655701 410.342102,423.538208 408.479034,425.336670 
	C406.632019,427.119629 405.205109,425.399506 403.806854,424.248138 
	C400.376251,421.423340 397.835663,416.169891 393.699310,415.946960 
	C389.384399,415.714386 387.167236,421.415985 383.685394,424.122528 
	C382.109100,425.347870 380.603943,427.203796 378.630371,425.087067 
	C376.798218,423.121979 378.279266,421.416382 379.652374,419.910583 
	C380.879944,418.564423 382.187439,417.291168 383.711609,415.732666 
z"/>
<path fill="#000000" opacity="1.000000" stroke="none" 
	d="
M336.083893,596.351929 
	C331.654755,596.130310 327.118958,597.532227 324.415100,591.805847 
	C338.131500,589.574097 351.769165,589.501282 364.871063,585.610107 
	C366.270203,590.252686 365.007172,592.437195 360.754395,593.277161 
	C352.752655,594.857544 344.819733,596.812805 336.083893,596.351929 
z"/>
<path fill="#000000" opacity="1.000000" stroke="none" 
	d="
M413.844940,572.304321 
	C410.544373,573.432312 407.683624,573.541931 405.046783,572.196411 
	C404.633636,570.502625 405.584351,569.952332 406.483398,569.622314 
	C416.087097,566.096558 423.397339,559.262207 430.889954,552.711609 
	C432.846283,551.001282 434.416626,550.495422 436.343109,552.741394 
	C438.314301,555.039368 437.474548,556.571716 435.412262,558.081421 
	C428.560089,563.097534 421.770874,568.205200 413.844940,572.304321 
z"/>
<path fill="#000000" opacity="1.000000" stroke="none" 
	d="
M352.078857,604.218140 
	C345.917389,605.403687 341.138000,603.265686 336.635681,600.572388 
	C336.828186,598.797302 337.727417,598.559387 338.494751,598.504028 
	C347.104156,597.883118 355.657196,596.917725 364.146454,595.268921 
	C367.640411,594.590271 368.350159,597.589111 369.534027,600.505371 
	C363.845428,602.618103 358.036591,602.845520 352.078857,604.218140 
z"/>
<path fill="#000000" opacity="1.000000" stroke="none" 
	d="
M310.610107,497.939087 
	C315.691223,508.609283 324.197296,515.168335 334.802246,519.865845 
	C328.103912,523.094727 319.008759,521.016968 315.233185,515.834412 
	C311.842926,511.180756 310.023560,505.877319 308.910217,500.300140 
	C308.608002,498.786194 308.690216,498.769775 310.610107,497.939087 
z"/>
<path fill="#000000" opacity="1.000000" stroke="none" 
	d="
M551.338013,604.006653 
	C551.322388,609.307617 551.306824,614.110718 551.291260,618.913818 
	C551.285278,620.760925 550.808289,622.184143 548.559387,622.205444 
	C546.355103,622.226257 545.705017,620.906738 545.703430,619.013428 
	C545.696167,610.401123 545.698303,601.788818 545.705994,593.176514 
	C545.707642,591.330444 546.227478,589.896362 548.452759,589.869446 
	C550.650391,589.842896 551.281433,591.178345 551.290527,593.074829 
	C551.307129,596.552795 551.322266,600.030823 551.338013,604.006653 
z"/>
<path fill="#000000" opacity="1.000000" stroke="none" 
	d="
M277.415771,540.861572 
	C276.358612,538.593994 276.751556,537.842346 279.087097,538.185974 
	C283.320007,538.808655 287.578979,539.306213 291.843903,539.641907 
	C294.968414,539.887817 295.761963,542.386230 295.625244,544.402100 
	C295.475769,546.606140 292.854828,546.700256 291.195740,546.081726 
	C286.678223,544.397461 280.451660,547.372925 277.415771,540.861572 
z"/>
<path fill="#000000" opacity="1.000000" stroke="none" 
	d="
M393.072601,582.292419 
	C389.525269,584.500122 387.088898,584.389709 386.176453,579.976624 
	C390.618347,579.003723 391.423645,579.252991 393.072601,582.292419 
z"/>
</svg>